<mxfile host="65bd71144e">
    <diagram id="I8A1L0nqn0BGCS9SzCdN" name="Page-1">
        <mxGraphModel dx="984" dy="783" grid="1" gridSize="10" guides="1" tooltips="1" connect="1" arrows="1" fold="1" page="1" pageScale="1" pageWidth="850" pageHeight="1100" math="0" shadow="0">
            <root>
                <mxCell id="0"/>
                <mxCell id="1" parent="0"/>
                <mxCell id="uGoRk9LptmRN7xlSXu9t-8" value="" style="rounded=1;whiteSpace=wrap;html=1;arcSize=5;fillColor=#E6E6E6;" vertex="1" parent="1">
                    <mxGeometry width="580" height="690" as="geometry"/>
                </mxCell>
                <mxCell id="uGoRk9LptmRN7xlSXu9t-9" value="&lt;h1&gt;&lt;font data-font-src=&quot;https://fonts.googleapis.com/css?family=Iosevka&quot; face=&quot;Iosevka&quot;&gt;ZeroconfManager&lt;/font&gt;&lt;/h1&gt;&lt;p&gt;&lt;font data-font-src=&quot;https://fonts.googleapis.com/css?family=Iosevka&quot; face=&quot;Iosevka&quot;&gt;Handles zeroconf service broadcast and tracking for base HELAO servers&lt;/font&gt;&lt;/p&gt;" style="text;html=1;strokeColor=none;fillColor=none;spacing=5;spacingTop=-20;whiteSpace=wrap;overflow=hidden;rounded=0;" vertex="1" parent="1">
                    <mxGeometry x="30" y="10" width="520" height="70" as="geometry"/>
                </mxCell>
                <mxCell id="uGoRk9LptmRN7xlSXu9t-15" value="" style="rounded=1;whiteSpace=wrap;html=1;arcSize=7;fillColor=#FFFFCC;" vertex="1" parent="1">
                    <mxGeometry x="30" y="140" width="420" height="240" as="geometry"/>
                </mxCell>
                <mxCell id="uGoRk9LptmRN7xlSXu9t-10" value="" style="rounded=1;whiteSpace=wrap;html=1;arcSize=7;" vertex="1" parent="1">
                    <mxGeometry x="30" y="100" width="420" height="240" as="geometry"/>
                </mxCell>
                <mxCell id="uGoRk9LptmRN7xlSXu9t-11" value="&lt;h1&gt;&lt;font data-font-src=&quot;https://fonts.googleapis.com/css?family=Iosevka&quot; face=&quot;Iosevka&quot;&gt;Service browser&lt;/font&gt;&lt;/h1&gt;&lt;p&gt;&lt;font data-font-src=&quot;https://fonts.googleapis.com/css?family=Iosevka&quot; face=&quot;Iosevka&quot;&gt;Keeps listing of all zeroconf services on network with property key &quot;helao_server&quot;.&lt;/font&gt;&lt;/p&gt;" style="text;html=1;strokeColor=none;fillColor=none;spacing=5;spacingTop=-20;whiteSpace=wrap;overflow=hidden;rounded=0;" vertex="1" parent="1">
                    <mxGeometry x="50" y="110" width="380" height="90" as="geometry"/>
                </mxCell>
                <mxCell id="uGoRk9LptmRN7xlSXu9t-12" value="&lt;font data-font-src=&quot;https://fonts.googleapis.com/css?family=Iosevka&quot; face=&quot;Iosevka&quot;&gt;&lt;b&gt;Local&lt;/b&gt;&lt;br&gt;(instrument-only)&lt;/font&gt;" style="rounded=1;whiteSpace=wrap;html=1;" vertex="1" parent="1">
                    <mxGeometry x="50" y="210" width="200" height="30" as="geometry"/>
                </mxCell>
                <mxCell id="uGoRk9LptmRN7xlSXu9t-13" value="&lt;font data-font-src=&quot;https://fonts.googleapis.com/css?family=Iosevka&quot; face=&quot;Iosevka&quot;&gt;&lt;b&gt;Shared&lt;/b&gt;&lt;br&gt;(available to group)&lt;/font&gt;" style="rounded=1;whiteSpace=wrap;html=1;" vertex="1" parent="1">
                    <mxGeometry x="50" y="250" width="200" height="30" as="geometry"/>
                </mxCell>
                <mxCell id="uGoRk9LptmRN7xlSXu9t-14" value="&lt;font data-font-src=&quot;https://fonts.googleapis.com/css?family=Iosevka&quot; face=&quot;Iosevka&quot;&gt;&lt;b&gt;Foreign&lt;/b&gt;&lt;br&gt;(not in instrument or gorup)&lt;/font&gt;" style="rounded=1;whiteSpace=wrap;html=1;" vertex="1" parent="1">
                    <mxGeometry x="50" y="290" width="200" height="30" as="geometry"/>
                </mxCell>
                <mxCell id="uGoRk9LptmRN7xlSXu9t-16" value="&lt;b&gt;&lt;font style=&quot;font-size: 18px;&quot;&gt;Service browser task&lt;/font&gt;&lt;/b&gt;" style="text;html=1;strokeColor=none;fillColor=none;align=center;verticalAlign=middle;whiteSpace=wrap;rounded=0;fontFamily=Iosevka;fontSource=https%3A%2F%2Ffonts.googleapis.com%2Fcss%3Ffamily%3DIosevka;" vertex="1" parent="1">
                    <mxGeometry x="50" y="340" width="380" height="40" as="geometry"/>
                </mxCell>
                <mxCell id="uGoRk9LptmRN7xlSXu9t-17" value="" style="rounded=1;whiteSpace=wrap;html=1;arcSize=7;" vertex="1" parent="1">
                    <mxGeometry x="30" y="410" width="420" height="240" as="geometry"/>
                </mxCell>
                <mxCell id="uGoRk9LptmRN7xlSXu9t-18" value="&lt;h1&gt;&lt;font data-font-src=&quot;https://fonts.googleapis.com/css?family=Iosevka&quot; face=&quot;Iosevka&quot;&gt;Service broadcaster&lt;/font&gt;&lt;/h1&gt;&lt;p&gt;&lt;font data-font-src=&quot;https://fonts.googleapis.com/css?family=Iosevka&quot; face=&quot;Iosevka&quot;&gt;Registers service on network, and unregisters at shutdown.&lt;/font&gt;&lt;/p&gt;" style="text;html=1;strokeColor=none;fillColor=none;spacing=5;spacingTop=-20;whiteSpace=wrap;overflow=hidden;rounded=0;" vertex="1" parent="1">
                    <mxGeometry x="50" y="420" width="380" height="90" as="geometry"/>
                </mxCell>
            </root>
        </mxGraphModel>
    </diagram>
</mxfile>